# xmcd
#
# Track frame offsets:
#	150
#	15764
#	29483
#	44934
#	60088
#	77963
#	92356
#	109571
#	122042
#	139977
#	155591
#	169310
#	184761
#	199915
#	217790
#	232183
#	249398
#	261869
#
# Disc length: 3730
#
# Revision: 1
# Processed by: cddbd v1.5.2PL0 Copyright (c) Steve Scherf et al.
# Submitted via: kJams Pro (development) 1.0patch45.9
#
DISCID=f40e9012
DTITLE=Various Artist - NSC 3014
DYEAR=1995
DGENRE=Country
TTITLE0=Brooks and Dunn - Ain't Nothing 'Bout You
TTITLE1=Dixie Chicks - If I Fall You're Going Down With Me
TTITLE2=Mark Mc Guinn - Mrs. Steven Rudy
TTITLE3=Patty Loveless - The Last Thing On My Mind
TTITLE4=Steve Holy - The Hunger
TTITLE5=Clay Davidson - Sometimes
TTITLE6=Montgomery Gentry - She Couldn't Change Me
TTITLE7=Kenny Rogers - There You Go Again
TTITLE8=Terri Clark - No Fear
TTITLE9=Brooks and Dunn - Vocals - Ain't Nothing 'Bout You
TTITLE10=Dixie Chicks - Vocals - If I Fall You're Going Down With Me
TTITLE11=Mark McGuinn - Vocals - Mrs. Steven Rudy
TTITLE12=Patty Loveless - Vocals - The Last Thing On My Mind
TTITLE13=Steve Holy - Vocals - The Hunger
TTITLE14=Clay Davidson - Vocals - Sometimes
TTITLE15=Montgomery Gentry - Vocals - She Couldn't Change Me
TTITLE16=Kenny Rogers - Vocals - There You Go Again
TTITLE17=Terri Clark - Vocals - No Fear
EXTD=
EXTT0=
EXTT1=
EXTT2=
EXTT3=
EXTT4=
EXTT5=
EXTT6=
EXTT7=
EXTT8=
EXTT9=
EXTT10=
EXTT11=
EXTT12=
EXTT13=
EXTT14=
EXTT15=
EXTT16=
EXTT17=
PLAYORDER=
